<?xml version="1.0" encoding="UTF-8"?>
<svg width="256" height="256" viewBox="0 0 256 256" fill="none" xmlns="http://www.w3.org/2000/svg">
  <defs>
    <linearGradient id="bg" x1="0" y1="0" x2="256" y2="256" gradientUnits="userSpaceOnUse">
      <stop stop-color="#F6F0FF"/>
      <stop offset="1" stop-color="#E9F1FF"/>
    </linearGradient>
    <filter id="shadow" x="-20%" y="-20%" width="140%" height="140%" filterUnits="objectBoundingBox">
      <feDropShadow dx="0" dy="8" stdDeviation="12" flood-color="#000" flood-opacity="0.2"/>
    </filter>
  </defs>
  <rect x="16" y="16" width="224" height="224" rx="36" fill="url(#bg)" filter="url(#shadow)"/>
  <!-- Document -->
  <path d="M72 56h72l32 32v112a12 12 0 0 1-12 12H72a12 12 0 0 1-12-12V68a12 12 0 0 1 12-12z" fill="#7C5CFF" fill-opacity="0.18"/>
  <path d="M144 56l32 32h-20a12 12 0 0 1-12-12V56z" fill="#7C5CFF"/>
  <rect x="76" y="80" width="92" height="120" rx="10" fill="#FFFFFF"/>
  <!-- QR-like squares -->
  <rect x="92" y="100" width="20" height="20" rx="3" fill="#1F2A44"/>
  <rect x="124" y="100" width="20" height="20" rx="3" fill="#1F2A44"/>
  <rect x="92" y="132" width="20" height="20" rx="3" fill="#1F2A44"/>
  <!-- Check mark -->
  <path d="M124 152l10 10 18-22" stroke="#1F2A44" stroke-width="8" stroke-linecap="round" stroke-linejoin="round"/>
  <!-- Swiss cross over mountains -->
  <path d="M176 96l20-14 20 14v18h-40V96z" fill="#C7D2FE"/>
  <rect x="198" y="88" width="16" height="16" rx="2" fill="#FFFFFF"/>
  <rect x="203" y="83" width="6" height="26" fill="#FFFFFF"/>
  <rect x="193" y="93" width="26" height="6" fill="#FFFFFF"/>
</svg>
